<?xml version="1.0" standalone="no"?><!-- Generator: Adobe Fireworks CS6, Export SVG Extension by Aaron Beall (http://fireworks.abeall.com) . Version: 0.6.1  --><!DOCTYPE svg PUBLIC "-//W3C//DTD SVG 1.1//EN" "http://www.w3.org/Graphics/SVG/1.1/DTD/svg11.dtd"><svg id="Untitled-Page%201" viewBox="0 0 766 487" style="background-color:#ffffff00" version="1.1"	xmlns="http://www.w3.org/2000/svg" xmlns:xlink="http://www.w3.org/1999/xlink" xml:space="preserve"	x="0px" y="0px" width="766px" height="487px">	<defs>		<linearGradient id="gradient1" x1="50%" y1="0%" x2="50%" y2="100%">			<stop stop-color="#ffffff" stop-opacity="1" offset="0%"/>			<stop stop-color="#b9cfdb" stop-opacity="1" offset="100%"/>		</linearGradient>	</defs>	<path d="M 187 178.5 C 187 193.6962 188.8966 208.4503 192.47 222.535 C 188.5265 222.1818 184.5354 222 180.5 222 C 163.7236 222 147.6768 225.1173 132.905 230.805 C 120.8034 216.8358 102.9332 208 83 208 C 46.5487 208 17 237.5487 17 274 C 17 298.4474 30.2939 319.7896 50.045 331.195 C 48.7026 338.7608 48 346.5487 48 354.5 C 48 365.3938 49.316 375.9804 51.795 386.11 C 50.7066 386.037 49.6069 386 48.5 386 C 21.7138 386 0 407.7138 0 434.5 C 0 461.2862 21.7138 483 48.5 483 C 68.3687 483 85.4444 471.0522 92.94 453.95 C 116.2868 474.5207 146.937 487 180.5 487 C 213.5274 487 243.7326 474.9173 266.935 454.93 C 284.6885 474.6222 310.3983 487 339 487 C 372.8531 487 402.6571 469.6593 420.01 443.375 C 449.1104 470.4441 488.1205 487 531 487 C 568.847 487 603.6799 474.1008 631.345 452.46 C 644.8989 470.9751 666.7956 483 691.5 483 C 732.6458 483 766 449.6458 766 408.5 C 766 368.0889 733.8248 335.1918 693.695 334.03 C 693.8965 330.7119 694 327.3688 694 324 C 694 238.079 627.5221 167.6874 543.195 161.45 C 534.6111 70.8643 458.333 0 365.5 0 C 266.9159 0 187 79.9159 187 178.5 Z" stroke="#000000" stroke-width="1" fill="url(#gradient1)"/></svg>