<?xml version="1.0" standalone="no"?><!-- Generator: Adobe Fireworks CS6, Export SVG Extension by Aaron Beall (http://fireworks.abeall.com) . Version: 0.6.1  --><!DOCTYPE svg PUBLIC "-//W3C//DTD SVG 1.1//EN" "http://www.w3.org/Graphics/SVG/1.1/DTD/svg11.dtd"><svg id="Untitled-Page%201" viewBox="0 0 799 501" style="background-color:#ffffff00" version="1.1"	xmlns="http://www.w3.org/2000/svg" xmlns:xlink="http://www.w3.org/1999/xlink" xml:space="preserve"	x="0px" y="0px" width="799px" height="501px">	<defs>		<linearGradient id="gradient1" x1="50%" y1="0%" x2="50%" y2="100%">			<stop stop-color="#ffffff" stop-opacity="1" offset="0%"/>			<stop stop-color="#b9cfdb" stop-opacity="1" offset="100%"/>		</linearGradient>	</defs>	<path d="M 104 143 C 104 170.8098 111.936 196.7661 125.67 218.725 C 55.0799 225.9005 0 285.5163 0 358 C 0 435.3209 62.6791 498 140 498 C 178.6266 498 213.6004 482.3559 238.93 457.06 C 266.0749 484.2073 303.5757 501 345 501 C 391.6558 501 433.3339 479.7013 460.845 446.295 C 474.2724 478.4243 506.0002 501 543 501 C 577.514 501 607.441 481.3537 622.205 452.635 C 639.0297 479.8592 669.1451 498 703.5 498 C 756.2439 498 799 455.2439 799 402.5 C 799 366.4006 778.9715 334.981 749.42 318.745 C 754.9832 302.3491 758 284.7764 758 266.5 C 758 176.7526 685.2474 104 595.5 104 C 538.3467 104 488.084 133.5062 459.115 178.115 C 444.8111 161.5127 423.634 151 400 151 C 396.5227 151 393.0969 151.229 389.74 151.67 C 389.9114 148.8025 390 145.9106 390 143 C 390 64.0223 325.9777 0 247 0 C 168.0223 0 104 64.0223 104 143 Z" stroke="#ffffff" stroke-width="1" fill="url(#gradient1)"/></svg>