<?xml version="1.0" standalone="no"?><!-- Generator: Adobe Fireworks CS6, Export SVG Extension by Aaron Beall (http://fireworks.abeall.com) . Version: 0.6.1  --><!DOCTYPE svg PUBLIC "-//W3C//DTD SVG 1.1//EN" "http://www.w3.org/Graphics/SVG/1.1/DTD/svg11.dtd"><svg id="Untitled-Page%201" viewBox="0 0 794 295" style="background-color:#ffffff00" version="1.1"	xmlns="http://www.w3.org/2000/svg" xmlns:xlink="http://www.w3.org/1999/xlink" xml:space="preserve"	x="0px" y="0px" width="794px" height="295px">	<defs>		<linearGradient id="gradient1" x1="50%" y1="0%" x2="50%" y2="100%">			<stop stop-color="#cccccc" stop-opacity="1" offset="0%"/>			<stop stop-color="#3E6579" stop-opacity="1" offset="100%"/>		</linearGradient>	</defs>	<path d="M 223.68 258.91 C 249.3449 280.7912 282.6296 294 319 294 C 353.9704 294 386.0904 281.7904 411.325 261.4 C 425.3732 281.1318 448.4325 294 474.5 294 C 488.0279 294 500.7459 290.5323 511.815 284.44 C 525.9672 290.589 541.5856 294 558 294 C 586.7403 294 613.041 283.5498 633.305 266.24 C 644.4082 282.9713 663.4149 294 685 294 C 704.9378 294 722.6782 284.5869 734.02 269.965 C 739.4706 272.5509 745.5659 274 752 274 C 775.1963 274 794 255.1963 794 232 C 794 208.8037 775.1963 190 752 190 C 745.5659 190 739.4706 191.4491 734.02 194.035 C 722.6782 179.4131 704.9378 170 685 170 C 681.1734 170 677.4299 170.3464 673.795 171.01 C 670.181 110.1987 619.719 62 558 62 C 518.0865 62 482.8807 82.1549 462.01 112.845 C 446.6126 48.1289 388.429 0 319 0 C 257.8321 0 205.3927 37.3599 183.25 90.505 C 171.1112 85.6638 157.8658 83 144 83 C 96.0418 83 55.5241 114.8498 42.44 158.55 C 39.3073 157.5449 35.9666 157 32.5 157 C 14.5505 157 0 171.5505 0 189.5 C 0 207.4495 14.5505 222 32.5 222 C 36.0689 222 39.5025 221.4228 42.715 220.36 C 56.086 263.5917 96.3753 295 144 295 C 175.7574 295 204.2529 281.0341 223.68 258.91 Z" stroke="#ffffff" stroke-width="1" fill="url(#gradient1)"/></svg>