<?xml version="1.0" encoding="iso-8859-1"?>
<!DOCTYPE svg PUBLIC "-//W3C//DTD SVG 1.0//EN" "http://www.w3.org/TR/2001/REC-SVG-20010904/DTD/svg10.dtd">
<!-- Creator: CorelDRAW -->
<svg xmlns="http://www.w3.org/2000/svg" xmlns:odm="http://product.corel.com/CGS/11/cddns/" xmlns:corel-charset="http://product.corel.com/CGS/11/cddns/" xml:space="preserve" width="9.5in" height="11.625in" style="shape-rendering:geometricPrecision; text-rendering:geometricPrecision; image-rendering:optimizeQuality; fill-rule:evenodd"
     viewBox="0 0 9500 11626">
 <defs>
  <style type="text/css">
   <![CDATA[
    .fil0 {fill:#0093DD}
    .fil3 {fill:#0A0B0C}
    .fil2 {fill:#1F1A17}
    .fil1 {fill:#DA251D}
   ]]>
  </style>
 </defs>
 <g id="Layer_x0020_1">
  <g>
   <g>
    <path class="fil0" d="M500 1271l8500 0 0 84 -8500 0 0 -84z"/>
   </g>
   <g>
    <path class="fil0" d="M500 1744l8500 0 0 83 -8500 0 0 -83z"/>
   </g>
   <g>
    <path class="fil0" d="M500 2217l8500 0 0 83 -8500 0 0 -83z"/>
   </g>
   <g>
    <path class="fil0" d="M500 2690l8500 0 0 83 -8500 0 0 -83z"/>
   </g>
   <g>
    <path class="fil0" d="M500 3162l8500 0 0 84 -8500 0 0 -84z"/>
   </g>
   <g>
    <path class="fil0" d="M500 3635l8500 0 0 83 -8500 0 0 -83z"/>
   </g>
   <g>
    <path class="fil0" d="M500 4108l8500 0 0 83 -8500 0 0 -83z"/>
   </g>
   <g>
    <path class="fil0" d="M500 4580l8500 0 0 84 -8500 0 0 -84z"/>
   </g>
   <g>
    <path class="fil0" d="M500 5053l8500 0 0 84 -8500 0 0 -84z"/>
   </g>
   <g>
    <path class="fil0" d="M500 5526l8500 0 0 83 -8500 0 0 -83z"/>
   </g>
   <g>
    <path class="fil0" d="M500 5999l8500 0 0 83 -8500 0 0 -83z"/>
   </g>
   <g>
    <path class="fil0" d="M500 6471l8500 0 0 84 -8500 0 0 -84z"/>
   </g>
   <g>
    <path class="fil0" d="M500 6944l8500 0 0 83 -8500 0 0 -83z"/>
   </g>
   <g>
    <path class="fil0" d="M500 7417l8500 0 0 83 -8500 0 0 -83z"/>
   </g>
   <g>
    <path class="fil0" d="M500 7890l8500 0 0 83 -8500 0 0 -83z"/>
   </g>
   <g>
    <path class="fil0" d="M500 8362l8500 0 0 84 -8500 0 0 -84z"/>
   </g>
   <g>
    <path class="fil0" d="M500 8835l8500 0 0 83 -8500 0 0 -83z"/>
   </g>
   <g>
    <path class="fil0" d="M500 9308l8500 0 0 83 -8500 0 0 -83z"/>
   </g>
   <g>
    <path class="fil0" d="M500 9781l8500 0 0 83 -8500 0 0 -83z"/>
   </g>
   <g>
    <path class="fil0" d="M500 10253l8500 0 0 84 -8500 0 0 -84z"/>
   </g>
   <g>
    <path class="fil0" d="M500 10726l8500 0 0 83 -8500 0 0 -83z"/>
   </g>
   <g>
    <path class="fil1" d="M1542 313l0 11000 -84 0 0 -11000 84 0z"/>
   </g>
   <g>
    <path class="fil2" d="M608 271l8284 0 0 84 -8284 0 0 -84zm8284 0l0 0 0 84 0 0 0 -84zm0 0c42,0 80,19 107,49l-62 56c-11,-13 -28,-21 -45,-21l0 -84zm107 49c26,29 43,68 43,112l-84 0c0,-22 -8,-42 -21,-56l62 -56zm43 112l0 0 -84 0 0 0 84 0zm0 0l0 10762 -84 0 0 -10762 84 0zm0 10762l0 0 -84 0 0 0 84 0zm0 0c0,44 -17,83 -43,112l-62 -56c13,-14 21,-34 21,-56l84 0zm-43 112c-27,30 -65,49 -107,49l0 -84c17,0 33,-8 45,-21l62 56zm-107 49l0 0 0 -84 0 0 0 84zm0 0l-8284 0 0 -84 8284 0 0 84zm-8284 0l0 0 0 -84 0 0 0 84zm0 0c-42,0 -80,-19 -107,-49l62 -56c11,13 28,21 45,21l0 84zm-107 -49c-26,-29 -43,-68 -43,-112l84 0c0,22 8,42 21,56l-62 56zm-43 -112l0 0 84 0 0 0 -84 0zm0 0l0 -10762 84 0 0 10762 -84 0zm0 -10762l0 0 84 0 0 0 -84 0zm0 0c0,-44 17,-83 43,-112l62 56c-13,14 -21,34 -21,56l-84 0zm43 -112c27,-30 65,-49 107,-49l0 84c-17,0 -33,8 -45,21l-62 -56zm107 -49l0 0 0 84 0 0 0 -84z"/>
   </g>
  </g>
 </g>
</svg>
