<?xml version="1.0"?><svg width="2771.8586" height="2771.8586" xmlns="http://www.w3.org/2000/svg">
 <defs>
  <filter color-interpolation-filters="sRGB" height="1.685714" y="-0.342857" width="1.685714" x="-0.342857" id="filter5498">
   <feGaussianBlur id="feGaussianBlur5500" stdDeviation="86.122445"/>
  </filter>
 </defs>
 <metadata id="metadata4768">image/svg+xml</metadata>
 <g>
  <title>Layer 1</title>
  <path stroke-width="0" fill="#ff7f00" stroke="#ffffff" id="use4891" d="m1272.792236,2771.858887l226.27417,0l-113.137085,-1436.84082l-113.137085,1436.84082zm0,-2771.858647l226.27417,0l-113.137085,1436.841069l-113.137085,-1436.841069z"/>
  <path stroke-width="0" fill="#ff7f00" stroke="#ffffff" id="use4895" d="m917.942017,2695.350098l218.567993,58.569824l262.599976,-1417.169922l-481.167969,1358.600098zm717.407959,-2677.407957l218.570068,58.564199l-481.170044,1358.603645l262.599976,-1417.167856l0,0l0,0.000011z"/>
  <path stroke-width="0" fill="#ff7f00" stroke="#ffffff" id="use4899" d="m594.984985,2529.61084l195.959229,113.137207l620.440918,-1300.909668l-816.400146,1187.772461zm1385.929321,-2400.5l195.959229,113.137207l-816.400146,1187.772461l620.440918,-1300.909668z"/>
  <path stroke-width="0" fill="#ff7f00" stroke="#ffffff" id="use4903" d="m324.929321,2285.929199l160,160l936.000122,-1096l-1096.000122,936zm1959.999878,-1960l160,160l-1095.999878,936l935.999878,-1096z"/>
  <path stroke-width="0" fill="#ff7f00" stroke="#ffffff" id="use4907" d="m125.113159,1976.914063l113.130127,195.959961l1187.779907,-816.400391l-1300.910034,620.44043zm2400.498169,-1385.930176l113.136475,195.959961l-1300.904175,620.439941l1187.7677,-816.399902l0,0z"/>
  <path stroke-width="0" fill="#ff7f00" stroke="#ffffff" id="use4911" d="m13.94324,1631.354004l58.560063,218.560059l1358.599846,-481.160156l-1417.159909,262.600098zm2677.409299,-717.410156l58.563721,218.560059l-1417.16333,262.599609l1358.599121,-481.159668l0.000488,0z"/>
  <path stroke-width="0" fill="#ff7f00" stroke="#ffffff" id="use4915" d="m-10.9967,1265.793945l0,226.27002l1436.83984,-113.130371l-1436.83984,-113.139648zm2771.855099,0l0,226.27002l-1436.845459,-113.130371l1436.845459,-113.139648l0,0z"/>
  <path stroke-width="0" fill="#ff7f00" stroke="#ffffff" id="use4919" d="m66.503304,910.943848l-58.560063,218.560059l1417.159909,262.599609l-1358.599846,-481.159668zm2677.412956,717.410156l-58.564209,218.560059l-1358.599121,-481.160156l1417.16333,262.600098l0,0z"/>
  <path stroke-width="0" fill="#ff7f00" stroke="#ffffff" id="use4923" d="m232.243286,587.983887l-113.130127,195.959961l1300.910034,620.439941l-1187.779907,-816.399902zm2400.504517,1385.930176l-113.136475,195.959961l-1187.7677,-816.400391l1300.904175,620.44043l0,0z"/>
  <path stroke-width="0" fill="#ff7f00" stroke="#ffffff" id="use4927" d="m475.933228,318.933838l-160,160l1096,936.000244l-936,-1096.000244zm1959.995972,1960.000244l-160,160l-935.995972,-1096.000488l1095.995972,936.000488l0,0z"/>
  <path stroke-width="0" fill="#ff7f00" stroke="#ffffff" id="use4931" d="m778.944336,123.11084l-195.959106,113.137207l816.400024,1187.772461l-620.440918,-1300.909668zm1385.929199,2400.5l-195.958984,113.137207l-620.44104,-1300.909668l816.400024,1187.772461z"/>
  <path stroke-width="0" fill="#ff7f00" stroke="#ffffff" id="use4935" d="m1129.50647,13.94238l-218.564087,58.563968l481.16394,1358.600098l-262.599854,-1417.164065zm717.40979,2677.410159l-218.564087,58.563965l-262.599854,-1417.164063l481.16394,1358.600098z"/>
  <path fill="#ffffff" stroke="#ffffff" stroke-width="3" stroke-linecap="round" stroke-linejoin="round" stroke-miterlimit="4" stroke-dashoffset="0" filter="url(#filter5498)" id="path4773" d="m1687.35791,1350.473267c0,166.474365 -134.954224,301.428589 -301.428589,301.428589c-166.474365,0 -301.428467,-134.954224 -301.428467,-301.428589c0,-166.474487 134.954102,-301.428589 301.428467,-301.428589c166.474365,0 301.428589,134.954102 301.428589,301.428589z"/>
 </g>
</svg>