<?xml version="1.0" standalone="no"?><!-- Generator: Adobe Fireworks CS6, Export SVG Extension by Aaron Beall (http://fireworks.abeall.com) . Version: 0.6.1  --><!DOCTYPE svg PUBLIC "-//W3C//DTD SVG 1.1//EN" "http://www.w3.org/Graphics/SVG/1.1/DTD/svg11.dtd"><svg id="panel-inverter.fw-Page%201" viewBox="0 0 3001 1424" style="background-color:#ffffff00" version="1.1"	xmlns="http://www.w3.org/2000/svg" xmlns:xlink="http://www.w3.org/1999/xlink" xml:space="preserve"	x="0px" y="0px" width="3001px" height="1424px">	<g id="Layer%201">		<path d="M 812.1039 1307.0552 L 758.0266 1413.324 M 64.59 16.7572 L 10.5127 123.0261 M 2990.4878 1302.7061 L 2936.4104 1408.9749 M 11.2441 120.2945 L 757.5264 1412.4579 M 757.5264 1412.4579 L 2936.4104 1408.9749 M 1693.2551 12.1217 L 2439.5374 1304.2852 M 618.1381 13.6788 L 1364.4204 1305.8423 M 1154.8307 13.4 L 1901.1129 1305.5635 M 65.8216 14.8917 L 812.1039 1307.0552 M 2243.3396 11.0423 L 2989.6218 1303.2058 M 437.231 661.9729 L 2616.115 658.4899 M 812.1039 1307.0552 L 2990.9878 1303.572 M 65.3214 14.0256 L 2244.2056 10.5426 " stroke="#000000" stroke-width="20" fill="none"/>		<path id="Line" d="M 2076.5 118.5 L 2174.5 178.5 " stroke="#000000" stroke-width="20" fill="none"/>		<path id="Line2" d="M 2016.5 148.5 L 2192.5 256.5 " stroke="#000000" stroke-width="20" fill="none"/>		<path id="Line3" d="M 2076.5 237.5 L 2151.5 285.5 " stroke="#000000" stroke-width="20" fill="none"/>		<path id="Line4" d="M 1136.5 383.5 L 1234.5 443.5 " stroke="#000000" stroke-width="20" fill="none"/>		<path id="Line5" d="M 1076.5 413.5 L 1252.5 521.5 " stroke="#000000" stroke-width="20" fill="none"/>		<path id="Line6" d="M 1136.5 502.5 L 1211.5 550.5 " stroke="#000000" stroke-width="20" fill="none"/>		<path id="Line7" d="M 1941.5 847.5 L 2039.5 907.5 " stroke="#000000" stroke-width="20" fill="none"/>		<path id="Line8" d="M 1881.5 877.5 L 2057.5 985.5 " stroke="#000000" stroke-width="20" fill="none"/>		<path id="Line9" d="M 1941.5 966.5 L 2016.5 1014.5 " stroke="#000000" stroke-width="20" fill="none"/>		<path id="Line10" d="M 944.5 1039.5 L 1042.5 1099.5 " stroke="#000000" stroke-width="20" fill="#000000"/>		<path id="Line11" d="M 884.5 1069.5 L 1060.5 1177.5 " stroke="#000000" stroke-width="20" fill="#000000"/>		<path id="Line12" d="M 944.5 1158.5 L 1019.5 1206.5 " stroke="#000000" stroke-width="20" fill="#000000"/>	</g></svg>